<?xml version="1.0" encoding="utf-8"?>
<!-- Generator: Adobe Illustrator 19.2.1, SVG Export Plug-In . SVG Version: 6.00 Build 0)  -->
<svg version="1.1" id="layer" xmlns="http://www.w3.org/2000/svg" xmlns:xlink="http://www.w3.org/1999/xlink" x="0px" y="0px"
	 viewBox="0 0 652 652" style="enable-background:new 0 0 652 652;" xml:space="preserve">
<style type="text/css">
	.st0{fill:#003378;}
	.st1{fill:#FFFFFF;}
	.st2{fill:#D9272E;}
</style>
<g>
	<path class="st0" d="M298.2,400.7c16.3,0,31.3-10.5,31.3-27c0-16.7-12.7-28.1-31.3-28.1h-10.6c-25,0-45.5,19.1-45.5,46.8v59.3
		h-42.7v-59.1c0-33,33.7-59.1,74.4-59.1h29.8c30.7,0,67.7,10,67.7,40.2c0,30.8-34,40.2-67.8,40.2h-56.5v-13.2H298.2"/>
	<rect x="402.8" y="333.5" class="st0" width="42.7" height="118.3"/>
	<path class="st0" d="M597.5,398.6h-73.8c3,22.4,20.6,39.2,41.4,39.2h55.4v13.4h-67.4c-40.7,0-74.5-26.1-74.5-59.1
		c0-33,33.8-59.1,74.5-59.1h67.4v13.1h-55.4c-20.9,0-38.6,16.9-41.4,39.5h73.8V398.6"/>
	<path class="st0" d="M65,360c0,4.8,5.7,9,15.8,11.8c10.2,2.8,23,6,36.2,9.2c26,6.3,53.3,14.7,53.3,34.2c0,21.8-39.3,36.6-92.6,36.6
		c-19.6,0-38.2-1.9-57-7.3l6-10.6c17.2,6.3,41.6,7.5,59.7,7.5c21.9,0,39.6-7,39.6-17.1c0-5.8-5.8-10.8-15.5-13.3
		c-9.9-2.6-22.6-5.9-35.5-8.8c-25.4-5.7-52.3-13.2-52.3-33.7c0-19.7,28.4-35,80.9-35c16.5,0,40.6,2.2,56.1,8.3l-6.8,8.5
		c-16-4.5-34.1-6.2-50.6-6.2C74.5,344,65,351.8,65,360"/>
	<path class="st1" d="M365.5,251.4c0-32.4,26.3-58.7,58.7-58.7c32.4,0,58.7,26.3,58.7,58.7c0,32.4-26.3,58.7-58.7,58.7
		C391.7,310.1,365.5,283.8,365.5,251.4"/>
	<path class="st2" d="M365.5,251.4c0-32.4,26.3-58.7,58.7-58.7c26.6,0,49,17.7,56.2,41.9c-4.6-6.8-10-13.1-16-18.7
		c-1.1,0.5-2.3,1-3.5,1.5c7.9,6.1,14.8,13.4,20.6,21.5c0.7,3.2,1.1,6.4,1.3,9.7c-7.7-11-18.2-20.8-29.3-27.7c-1.6,0.8-3.3,1.7-5,2.6
		c13,6.5,25.3,16.5,34.3,28.1c0,2.5-0.2,5-0.5,7.5c-11.1-13.7-25.8-24.3-42.7-30.4c-2.1,1.4-4.2,2.8-6.4,4.3
		c19,4.6,35.8,14.9,48.6,29c-0.4,2.2-0.9,4.4-1.6,6.5c-14.8-15.2-34.7-25.3-57-27.6c-2.4,2.1-4.8,4.4-7.2,6.8h0.9
		c23.9,0,45.7,9.1,62.2,24c-0.8,2.1-1.7,4.1-2.7,6.1c-15.4-12.4-34.9-19.9-56.1-19.9c-4.8,0-9.6,0.4-14.2,1.1
		c-2.3,3-4.5,6.1-6.6,9.4c7.7-2.2,15.8-3.3,24.1-3.3c18.9,0,36.4,5.9,50.9,16c-1.3,2.1-2.7,4.1-4.1,6.1
		c-12.7-7.5-27.5-11.8-43.4-11.8c-12.6,0-24.5,2.7-35.3,7.6c-1.6,3.6-3.2,7.4-4.5,11.4c12.7-7.5,27.4-11.8,43.2-11.8
		c13.2,0,25.7,3,36.8,8.4c-10.7,11.6-26,18.9-43.1,18.9C391.7,310.1,365.5,283.8,365.5,251.4"/>
</g>
</svg>
